<svg xmlns="http://www.w3.org/2000/svg" version="1.1" xmlns:xlink="http://www.w3.org/1999/xlink" xmlns:svgjs="http://svgjs.dev/svgjs" width="1000" height="1000"><g clip-path="url(#SvgjsClipPath1118)"><rect width="1000" height="1000" fill="#ffffff"></rect><g transform="matrix(7.6923076923076925,0,0,7.6923076923076925,0,0)"><svg xmlns="http://www.w3.org/2000/svg" version="1.1" xmlns:xlink="http://www.w3.org/1999/xlink" xmlns:svgjs="http://svgjs.dev/svgjs" width="130" height="130"><svg xmlns="http://www.w3.org/2000/svg" viewBox="0 0 130 130" id="farms">
  <circle cx="65" cy="65" r="64" fill="#FAD553"></circle>
  <path fill="#FAB941" d="M106.518 65.54h13.588c.492 0 .894.402.894.894a.897.897 0 0 1-.894.894h-13.588a.897.897 0 0 1-.894-.894c0-.492.402-.894.894-.894zm5.24-26.5h3.108c.491 0 .894.402.894.894a.897.897 0 0 1-.894.894h-3.108a.897.897 0 0 1-.894-.894c0-.492.402-.894.894-.894zm-35.651 80.496c0 .5-.4.9-.89.9h-4.12c-.49 0-.89-.4-.89-.9 0-.49.4-.89.89-.89h4.12c.49 0 .89.4.89.89zm-7.53 0c0 .5-.41.9-.9.9h-.61c-.49 0-.89-.4-.89-.9 0-.49.4-.89.89-.89h.61c.49 0 .9.4.9.89zm-3.61 0c0 .5-.4.9-.9.9h-5.8c-.49 0-.9-.4-.9-.9a.9.9 0 0 1 .9-.89h5.8c.5 0 .9.4.9.89zm43.641-16.303h7.72c.437-.586.854-1.187 1.271-1.788h-8.99c-.492 0-.894.402-.894.894s.402.894.893.894zm-5.818-1.788h2.361c.492 0 .894.402.894.894a.897.897 0 0 1-.894.894h-2.36a.897.897 0 0 1-.895-.894c0-.492.402-.894.894-.894zM11.576 82.868h-8.03c.175.598.352 1.195.542 1.787h7.488a.896.896 0 0 0 .894-.893.897.897 0 0 0-.894-.894z"></path>
  <circle cx="14.321" cy="83.762" r=".894" fill="#FAB941"></circle>
  <path fill="#FAB941" d="M23.293 19.642a.897.897 0 0 0 .894-.894.897.897 0 0 0-.894-.894h-1.564a64.476 64.476 0 0 0-1.875 1.788h3.439zm18.428 0H26.835a.897.897 0 0 1-.894-.894c0-.492.402-.894.894-.894h14.886c.492 0 .894.402.894.894a.897.897 0 0 1-.894.894zm49.347-3.41H85.26a.897.897 0 0 1-.894-.895c0-.491.402-.893.894-.893h5.808c.491 0 .894.402.894.894a.897.897 0 0 1-.894.893zm3.542 0h11.812a64.522 64.522 0 0 0-2.202-1.788h-9.61c-.492 0-.894.402-.894.893s.402.894.894.894zm-12.35 0h-3.108a.897.897 0 0 1-.894-.895c0-.491.402-.893.894-.893h3.108c.491 0 .894.402.894.894a.897.897 0 0 1-.894.893zM20.864 66.133a.894.894 0 1 1-1.79 0 .894.894 0 0 1 1.79 0zm2.11.9h12.591a.895.895 0 1 0 0-1.79h-12.59a.9.9 0 0 0-.901.89c0 .49.41.9.9.9zm8.69 41.183a.894.894 0 1 1-1.79 0 .894.894 0 0 1 1.79 0zm2.11.9h12.592a.895.895 0 1 0 0-1.79H33.775a.9.9 0 0 0-.9.89c0 .49.41.9.9.9zm65.1-69.188a.894.894 0 1 1-1.79 0 .895.895 0 0 1 1.79 0zm2.11.9h6.592a.895.895 0 1 0 0-1.79h-6.59a.9.9 0 0 0-.901.89c0 .49.41.9.9.9zm-83.367 4.478a.894.894 0 1 1-1.79 0 .894.894 0 0 1 1.79 0zm2.11.9h7.592a.895.895 0 1 0 0-1.79h-7.591a.9.9 0 0 0-.9.89c0 .49.41.9.9.9z"></path>
  <g fill="#FAB941">
    <path d="M84.891 25.137v66.41a4.54 4.54 0 0 1-4.54 4.54H35.687a4.54 4.54 0 0 1-4.54-4.54v-66.41a4.542 4.542 0 0 1 4.542-4.543h44.66a4.542 4.542 0 0 1 4.542 4.543z"></path>
    <path d="M102.536 42.132v66.412a4.54 4.54 0 0 1-4.54 4.54H53.33a4.54 4.54 0 0 1-4.54-4.54v-53.62l17.332-17.332h31.872a4.54 4.54 0 0 1 4.54 4.54z"></path>
  </g>
  <path fill="#EDEDED" d="M83.05 23.296v66.41a4.54 4.54 0 0 1-4.54 4.54H33.846a4.54 4.54 0 0 1-4.54-4.54v-66.41a4.542 4.542 0 0 1 4.542-4.543h44.66a4.542 4.542 0 0 1 4.542 4.543z"></path>
  <path fill="#DDDCE0" d="M74.291 67.883c0 .964-.781 1.745-1.745 1.745H39.81a1.745 1.745 0 1 1 0-3.49h32.737c.964 0 1.745.782 1.745 1.745zm0-9.265c0 .964-.781 1.745-1.745 1.745H39.81a1.745 1.745 0 1 1 0-3.49h32.737c.964 0 1.745.782 1.745 1.745zm0-9.265c0 .963-.781 1.744-1.745 1.744H39.81a1.745 1.745 0 1 1 0-3.49h32.737c.964.001 1.745.782 1.745 1.746zm0-9.266c0 .964-.781 1.745-1.745 1.745H39.81a1.745 1.745 0 1 1 0-3.49h32.737c.964 0 1.745.782 1.745 1.745zm0-9.265c0 .963-.781 1.744-1.745 1.744H39.81a1.745 1.745 0 1 1 0-3.49h32.737c.964.001 1.745.782 1.745 1.746z"></path>
  <path fill="#FFF" d="M100.695 40.291v66.412a4.54 4.54 0 0 1-4.54 4.54H51.49a4.54 4.54 0 0 1-4.54-4.54v-53.62l17.332-17.332h31.872a4.54 4.54 0 0 1 4.54 4.54z"></path>
  <path fill="#EDEDED" d="M100.693 40.294v66.411a4.542 4.542 0 0 1-4.542 4.542H51.486a4.545 4.545 0 0 1-4.142-2.689c.563.245 1.181.382 1.835.382h34.889c7.907 0 14.317-6.41 14.317-14.318V37.987c0-.654-.136-1.28-.39-1.844a4.542 4.542 0 0 1 2.698 4.151zm-35.288-4.543v13.621a4.834 4.834 0 0 1-4.834 4.835H46.95v-1.124l17.332-17.332h1.123z"></path>
  <path fill="#4A749B" d="M64.282 35.751v12.792a4.54 4.54 0 0 1-4.54 4.54H46.95l17.332-17.332z"></path>
  <path fill="#EDEDED" d="M91.936 79.718c0 .963-.782 1.744-1.745 1.744H57.454a1.745 1.745 0 1 1 0-3.49H90.19c.963.001 1.745.782 1.745 1.746zm0-9.34c0 .963-.782 1.744-1.745 1.744H57.454a1.745 1.745 0 1 1 0-3.49H90.19c.963 0 1.745.782 1.745 1.745zm0 17.915c0 .963-.782 1.744-1.745 1.744H57.454a1.745 1.745 0 1 1 0-3.49H90.19c.963.001 1.745.782 1.745 1.746zM78.31 96.867c0 .964-.781 1.745-1.745 1.745H57.454a1.745 1.745 0 1 1 0-3.49h19.111c.964 0 1.745.782 1.745 1.745z"></path>
</svg></svg></g></g><defs><clipPath id="SvgjsClipPath1118"><rect width="1000" height="1000" x="0" y="0" rx="500" ry="500"></rect></clipPath></defs></svg>